<?xml version="1.0" encoding="utf-8"?>
<!-- Generator: Adobe Illustrator 24.0.2, SVG Export Plug-In . SVG Version: 6.00 Build 0)  -->
<svg version="1.1" id="Ebene_1" xmlns="http://www.w3.org/2000/svg" xmlns:xlink="http://www.w3.org/1999/xlink" x="0px" y="0px"
	 viewBox="0 0 17 18.3" style="enable-background:new 0 0 17 18.3;" xml:space="preserve">
<style type="text/css">
	.st0{fill:none;stroke:#078460;stroke-miterlimit:10;}
	.st1{fill:#FFFFFF;stroke:#787878;stroke-width:0.25;stroke-miterlimit:10;}
	.st2{fill:#D6D6D6;stroke:#787878;stroke-width:0.25;stroke-miterlimit:10;}
</style>
<title>ext_icon</title>
<g>
	<path d="M3.8,2.7v3.4H2.9V2.7H1.9V1.9h3v0.7H3.8z"/>
	<path d="M7.8,4.9c0,0.2,0,0.4-0.1,0.5S7.5,5.7,7.4,5.8C7.3,5.9,7.2,6,7,6.1C6.8,6.1,6.7,6.2,6.5,6.2c-0.2,0-0.3,0-0.5-0.1
		C5.8,6,5.7,6,5.6,5.9C5.5,5.8,5.4,5.6,5.3,5.5C5.2,5.3,5.2,5.1,5.2,4.9h0.8c0,0.1,0,0.2,0.1,0.2C6,5.2,6,5.3,6.1,5.3
		c0.1,0,0.1,0.1,0.2,0.1s0.1,0,0.2,0c0.2,0,0.3,0,0.4-0.1C7,5.2,7.1,5.1,7.1,4.9c0-0.2-0.1-0.3-0.2-0.4C6.8,4.4,6.7,4.3,6.5,4.3H6.4
		V3.7h0.1c0.2,0,0.3-0.1,0.4-0.2C7,3.4,7,3.3,7,3.1c0-0.2-0.1-0.3-0.2-0.4S6.6,2.6,6.5,2.6c-0.1,0-0.3,0-0.4,0.1C6,2.8,6,2.9,6,3.1
		H5.2c0-0.2,0-0.4,0.1-0.5c0.1-0.1,0.2-0.3,0.3-0.4C5.7,2.1,5.8,2,6,2c0.2-0.1,0.3-0.1,0.5-0.1c0.2,0,0.4,0,0.5,0.1
		C7.2,2,7.3,2.1,7.4,2.2c0.1,0.1,0.2,0.2,0.3,0.4c0.1,0.1,0.1,0.3,0.1,0.5c0,0.2,0,0.4-0.1,0.5S7.4,3.9,7.3,4C7.4,4,7.6,4.1,7.7,4.3
		C7.8,4.4,7.8,4.7,7.8,4.9z"/>
	<path d="M11.5,4.7c0,0.2,0,0.4-0.1,0.6c-0.1,0.2-0.2,0.3-0.3,0.5C11,5.9,10.8,6,10.6,6S10.2,6.1,10,6.1S9.6,6.1,9.4,6
		S9.1,5.9,8.9,5.7C8.8,5.6,8.7,5.5,8.6,5.3C8.5,5.1,8.5,4.9,8.5,4.7V1.9h0.8v2.7c0,0.2,0.1,0.4,0.2,0.6C9.6,5.3,9.8,5.4,10,5.4
		s0.4-0.1,0.5-0.2s0.2-0.3,0.2-0.6V1.9h0.8V4.7z"/>
	<path d="M15.4,3.2c0,0.2,0,0.3-0.1,0.5C15.2,3.9,15.1,4,15,4.1c-0.1,0.1-0.3,0.2-0.4,0.3S14.2,4.5,14,4.5h-0.8v1.6h-0.8V1.9H14
		c0.2,0,0.4,0,0.6,0.1s0.3,0.2,0.4,0.3c0.1,0.1,0.2,0.3,0.3,0.4C15.4,2.9,15.4,3,15.4,3.2z M14.6,3.2c0-0.2-0.1-0.3-0.2-0.4
		c-0.1-0.1-0.3-0.2-0.4-0.2h-0.8v1.1H14c0.2,0,0.3-0.1,0.4-0.2C14.5,3.5,14.6,3.4,14.6,3.2z"/>
</g>
<path class="st0" d="M16.5,2.5c0-1.1-0.9-2-2.1-2l0,0H2.5c-1.1,0-2,0.9-2,2v6.8h16V2.5z"/>
<rect x="0.7" y="9.8" class="st1" width="5.2" height="2.1"/>
<rect x="5.9" y="9.8" class="st1" width="5.2" height="2.1"/>
<rect x="11" y="9.8" class="st1" width="5.2" height="2.1"/>
<rect x="0.7" y="7.7" class="st2" width="5.2" height="2.1"/>
<rect x="5.9" y="7.7" class="st2" width="5.2" height="2.1"/>
<rect x="11" y="7.7" class="st2" width="5.2" height="2.1"/>
<rect x="0.7" y="11.8" class="st2" width="5.2" height="2.1"/>
<rect x="5.9" y="11.8" class="st2" width="5.2" height="2.1"/>
<rect x="11" y="11.8" class="st2" width="5.2" height="2.1"/>
<rect x="0.7" y="13.9" class="st1" width="5.2" height="2.1"/>
<rect x="5.9" y="13.9" class="st1" width="5.2" height="2.1"/>
<rect x="11" y="13.9" class="st1" width="5.2" height="2.1"/>
<path class="st0" d="M0.5,14.4c0,1.1,0.9,2.1,2,2.1l0,0h11.9c1.1,0,2.1-0.9,2.1-2.1l0,0V7.6h-16C0.5,7.6,0.5,14.5,0.5,14.4z"/>
</svg>
